
<svg width="922" height="854" viewBox="0 0 922 854" fill="none" xmlns="http://www.w3.org/2000/svg">
<mask id="path-1-outside-1" maskUnits="userSpaceOnUse" x="0" y="-105" width="966" height="959" fill="black">
<rect fill="white" y="-105" width="966" height="959"/>
<path fill-rule="evenodd" clip-rule="evenodd" d="M603.469 188.017C603.125 185.553 602.896 183.054 602.787 180.524C602.7 178.962 602.659 177.389 602.665 175.804C602.671 174.435 602.712 173.074 602.787 171.722C602.667 154.311 596.784 137.507 584.565 125.016L548.732 88.4048C527.704 68.4001 509.863 60.0295 488.693 56.7679C487.332 56.8321 485.962 56.8619 484.583 56.8564C483.911 56.8506 483.251 56.839 482.586 56.8215C464.001 56.2288 445.842 62.0634 432.549 74.9996L395.753 110.838C374.896 132.643 366.614 151.03 363.606 173.247L363.577 173.212C363.566 175.779 363.431 178.316 363.178 180.82C363.74 197.464 369.631 213.42 381.352 225.402L417.191 262.007C438.995 282.755 457.382 290.994 479.599 293.987L479.564 294.016C495.842 294.086 510.952 299.111 523.481 307.653C527.659 310.5 531.547 313.742 535.092 317.315C542.188 324.468 547.924 332.974 551.876 342.398C555.827 351.828 557.995 362.182 557.948 373.03C557.908 383.878 555.659 394.209 551.637 403.61C547.61 413.005 541.804 421.459 534.651 428.559C531.077 432.103 527.16 435.317 522.964 438.129C510.365 446.571 495.209 451.481 478.925 451.417C473.503 451.394 468.209 450.824 463.095 449.749C447.759 446.536 434.055 438.843 423.415 428.112C409.218 413.801 400.477 394.098 400.564 372.403C400.564 371.74 400.576 371.078 400.599 370.421C401.186 351.927 395.352 333.869 382.415 320.644L346.582 284.034C325.61 264.082 307.808 255.703 286.712 252.423C285.557 252.468 284.396 252.489 283.23 252.484C282.558 252.478 281.898 252.467 281.232 252.449C262.647 251.857 244.489 257.691 231.195 270.627L194.399 306.466C173.543 328.271 165.26 346.658 162.253 368.875L162.223 368.84C162.153 385.117 157.101 400.227 148.515 412.756C145.654 416.935 142.394 420.823 138.802 424.368C131.613 431.463 123.062 437.199 113.588 441.151C104.109 445.103 93.7011 447.27 82.7966 447.224C71.8921 447.183 61.5075 444.934 52.0574 440.913C42.6131 436.885 34.1149 431.08 26.9777 423.926C23.4149 420.352 20.185 416.435 17.3581 412.239C8.87171 399.64 3.93637 384.484 4.00062 368.201C4.02398 362.779 4.59636 357.484 5.67688 352.37C8.90675 337.034 16.6398 323.331 27.4274 312.69C41.8129 298.493 61.6185 289.753 83.4274 289.84C84.0932 289.84 84.759 289.851 85.419 289.875C104.01 290.462 122.162 284.627 135.456 271.691L172.258 235.858C193.114 214.048 201.391 195.666 204.404 173.443L204.434 173.478C204.504 157.201 209.55 142.091 218.142 129.562C221.004 125.389 224.257 121.495 227.855 117.951C228.277 117.534 228.703 117.122 229.134 116.715C243.49 102.723 263.15 94.1255 284.781 94.212C285.446 94.212 286.112 94.2236 286.772 94.2469C305.363 94.8338 323.516 88.9992 336.809 76.063L373.611 40.23C394.468 18.4199 402.744 0.0384445 405.758 -22.1843L405.787 -22.1494C405.857 -38.4271 410.903 -53.5368 419.495 -66.0661C422.357 -70.2387 425.61 -74.1323 429.208 -77.6773C436.398 -84.773 444.943 -90.5088 454.422 -94.4606C458.369 -96.1072 462.48 -97.443 466.721 -98.4382C473.195 -100.135 479.99 -101.027 486.992 -100.999C492.414 -100.976 497.714 -100.407 502.822 -99.3376C518.164 -96.1245 531.867 -88.4317 542.508 -77.7001C556.699 -63.3893 565.446 -43.6866 565.358 -21.9909C565.353 -21.3227 565.341 -20.6662 565.324 -20.0038C564.731 -1.5154 570.565 16.5488 583.502 29.7731L619.34 66.378C639.453 85.517 656.659 94.012 676.644 97.5634C678.312 97.464 679.995 97.4168 681.689 97.4235C687.111 97.4467 692.411 98.0161 697.519 99.0853C698.41 99.2718 699.295 99.4735 700.175 99.69C713.005 97.4449 724.968 91.8297 734.456 82.597L771.258 46.764C792.114 24.9539 800.391 6.57246 803.404 -15.6503L803.434 -15.6154C803.504 -31.8931 808.55 -47.0027 817.142 -59.5321C820.003 -63.7047 823.257 -67.5983 826.855 -71.1432C834.044 -78.2389 842.589 -83.9748 852.069 -87.9265C861.542 -91.8783 871.956 -94.0401 882.86 -93.9994C893.759 -93.9529 904.144 -91.7097 913.594 -87.6825C923.038 -83.6552 931.542 -77.8554 938.679 -70.7016C942.242 -67.1276 945.472 -63.2107 948.299 -59.0149C956.785 -46.4158 961.715 -31.2539 961.651 -14.9762C961.627 -9.55414 961.055 -4.25415 959.98 0.854057C956.75 16.1961 949.017 29.8994 938.23 40.54C923.844 54.7314 904.039 63.4776 882.23 63.3904C881.558 63.3846 880.898 63.373 880.232 63.3555C861.647 62.7628 843.489 68.5974 830.195 81.5336L793.399 117.372C772.542 139.177 764.26 157.564 761.253 179.781L761.223 179.746C761.208 183.227 760.965 186.655 760.509 190.016C762.204 204.31 767.99 217.76 778.198 228.196L814.037 264.801C833.644 283.458 850.487 292 869.836 295.708C872.328 295.482 874.851 295.371 877.402 295.381C888.301 295.427 898.685 297.671 908.135 301.698C917.58 305.725 926.084 311.525 933.221 318.679C936.784 322.253 940.014 326.17 942.841 330.365C951.327 342.964 956.256 358.126 956.192 374.404C956.169 379.826 955.596 385.126 954.522 390.234C951.544 404.377 944.74 417.127 935.244 427.37C934.041 428.74 932.791 430.069 931.497 431.353C927.923 434.897 924.006 438.111 919.81 440.923C907.211 449.365 892.055 454.275 875.772 454.211C871.566 454.193 867.438 453.846 863.411 453.19C848.933 454.84 835.299 460.635 824.737 470.914L787.941 506.753C767.084 528.557 758.802 546.944 755.794 569.161L755.765 569.126C755.753 571.817 755.605 574.477 755.328 577.098C755.549 594.329 761.436 610.941 773.541 623.316L809.379 659.92C831.184 680.669 849.571 688.908 871.788 691.9L871.753 691.929C888.031 691.999 903.14 697.025 915.67 705.566C919.848 708.413 923.736 711.655 927.281 715.229C934.377 722.381 940.112 730.887 944.064 740.312C948.016 749.742 950.184 760.096 950.137 770.944C950.096 781.792 947.847 792.122 943.826 801.523C939.799 810.919 933.993 819.373 926.839 826.473C923.265 830.017 919.348 833.23 915.152 836.042C902.553 844.485 887.397 849.394 871.114 849.33C865.692 849.307 860.398 848.738 855.284 847.663C839.947 844.45 826.244 836.757 815.603 826.025C801.406 811.715 792.666 792.012 792.753 770.316C792.753 769.654 792.765 768.991 792.788 768.335C793.375 749.841 787.54 731.782 774.604 718.558L738.771 681.947C716.961 661.199 698.579 652.966 676.357 649.967L676.392 649.938C673.926 649.928 671.488 649.804 669.082 649.571C652.213 649.956 635.995 655.927 623.868 668.02L587.469 704.351C567.452 725.796 559.144 743.98 555.949 765.612C555.95 765.859 555.95 766.107 555.949 766.354C555.928 772.115 555.283 777.729 554.082 783.136C551.982 793.694 547.833 803.497 542.08 812.101C539.249 816.336 536.025 820.278 532.472 823.871C525.359 831.064 516.901 836.879 507.529 840.885C498.152 844.891 487.857 847.088 477.07 847.041C466.283 847 456.01 844.72 446.662 840.643C437.319 836.561 428.913 830.675 421.853 823.423C418.328 819.8 415.133 815.83 412.337 811.576C408.483 805.713 405.369 799.303 403.134 792.486C400.141 784.123 398.528 775.111 398.565 765.727C398.565 765.064 398.577 764.402 398.6 763.745C399.187 745.251 393.352 727.193 380.416 713.969L344.583 677.358C322.773 656.609 304.392 648.376 282.169 645.378L282.204 645.349C265.926 645.279 250.817 640.259 238.287 631.712C234.115 628.865 230.221 625.629 226.676 622.05C219.58 614.897 213.844 606.397 209.893 596.967C205.941 587.542 203.779 577.183 203.82 566.335C203.866 555.493 206.11 545.162 210.137 535.761C214.164 526.366 219.964 517.906 227.118 510.806C230.692 507.261 234.609 504.048 238.804 501.236C251.403 492.794 266.565 487.89 282.843 487.954C288.265 487.977 293.565 488.546 298.673 489.615C314.015 492.829 327.719 500.521 338.359 511.253C352.551 525.564 361.297 545.267 361.21 566.962C361.204 567.63 361.192 568.287 361.175 568.949C360.582 587.438 366.417 605.502 379.353 618.726L415.192 655.331C436.996 676.08 455.383 684.319 477.6 687.311L477.565 687.34C479.468 687.348 481.355 687.424 483.223 687.565C500.355 687.332 516.861 681.364 529.161 669.098L565.566 632.773C586.198 610.664 594.385 592.03 597.366 569.502L597.395 569.537C597.417 564.332 597.929 559.244 598.886 554.319C598.991 553.763 599.101 553.209 599.218 552.657C601.298 542.782 605.244 533.584 610.671 525.445C610.766 525.302 610.86 525.16 610.955 525.018C613.786 520.788 617.005 516.841 620.564 513.247C627.676 506.054 636.129 500.24 645.506 496.234C654.877 492.228 665.179 490.036 675.966 490.077C677.195 490.083 678.417 490.117 679.633 490.18C697.988 490.606 715.864 484.758 728.997 471.977L765.799 436.144C785.563 415.477 794.03 397.889 797.428 377.193C797.414 376.529 797.408 375.864 797.411 375.197C797.411 374.534 797.422 373.872 797.446 373.215C798.033 354.721 792.198 336.663 779.262 323.438L743.429 286.828C725.913 270.164 710.608 261.573 693.75 257.283C689.849 257.858 685.857 258.147 681.797 258.13C670.892 258.089 660.507 255.84 651.057 251.819C641.613 247.792 633.115 241.986 625.978 234.832C622.415 231.258 619.185 227.341 616.358 223.146C609.441 212.877 604.883 200.909 603.469 188.017Z"/>
</mask>
<path d="M602.787 180.524L606.783 180.352L606.782 180.327L606.781 180.302L602.787 180.524ZM603.469 188.017L607.445 187.581L607.439 187.522L607.43 187.464L603.469 188.017ZM602.665 175.804L598.665 175.787V175.79L602.665 175.804ZM602.787 171.722L606.781 171.944L606.788 171.819L606.787 171.694L602.787 171.722ZM584.565 125.016L587.424 122.218L587.424 122.218L584.565 125.016ZM548.732 88.4048L551.591 85.6069L551.541 85.5559L551.489 85.5068L548.732 88.4048ZM488.693 56.7679L489.303 52.8146L488.906 52.7534L488.505 52.7724L488.693 56.7679ZM484.583 56.8564L484.548 60.8562L484.558 60.8563L484.567 60.8564L484.583 56.8564ZM482.586 56.8215L482.458 60.8195L482.47 60.8199L482.481 60.8202L482.586 56.8215ZM432.549 74.9996L429.759 72.1329L429.758 72.1341L432.549 74.9996ZM395.753 110.838L392.962 107.973L392.911 108.022L392.862 108.073L395.753 110.838ZM363.606 173.247L360.538 175.813L366.353 182.767L367.57 173.784L363.606 173.247ZM363.577 173.212L366.645 170.646L359.624 162.251L359.577 173.195L363.577 173.212ZM363.178 180.82L359.198 180.417L359.171 180.685L359.18 180.955L363.178 180.82ZM381.352 225.402L378.493 228.199L378.494 228.2L381.352 225.402ZM417.191 262.007L414.333 264.805L414.382 264.856L414.433 264.905L417.191 262.007ZM479.599 293.987L482.159 297.06L489.151 291.237L480.133 290.023L479.599 293.987ZM479.564 294.016L477.004 290.942L468.568 297.969L479.547 298.016L479.564 294.016ZM523.481 307.653L521.228 310.958L521.229 310.958L523.481 307.653ZM535.092 317.315L532.253 320.132L535.092 317.315ZM551.876 342.398L555.565 340.852L555.564 340.851L551.876 342.398ZM557.948 373.03L553.948 373.013V373.015L557.948 373.03ZM551.637 403.61L555.314 405.186L555.315 405.183L551.637 403.61ZM534.651 428.559L537.467 431.399L537.468 431.398L534.651 428.559ZM522.964 438.129L525.19 441.452L525.191 441.451L522.964 438.129ZM478.925 451.417L478.908 455.417H478.909L478.925 451.417ZM463.095 449.749L463.918 445.835L463.915 445.834L463.095 449.749ZM423.415 428.112L426.255 425.295L426.254 425.295L423.415 428.112ZM400.564 372.403L404.564 372.419L404.564 372.411V372.403H400.564ZM400.599 370.421L404.597 370.563L404.597 370.555L404.597 370.548L400.599 370.421ZM382.415 320.644L385.275 317.847L385.274 317.847L382.415 320.644ZM346.582 284.034L349.441 281.236L349.391 281.185L349.339 281.136L346.582 284.034ZM286.712 252.423L287.326 248.47L286.943 248.411L286.555 248.426L286.712 252.423ZM283.23 252.484L283.195 256.484L283.204 256.484L283.214 256.484L283.23 252.484ZM281.232 252.449L281.105 256.447L281.116 256.448L281.127 256.448L281.232 252.449ZM231.195 270.627L228.406 267.761L228.404 267.762L231.195 270.627ZM194.399 306.466L191.609 303.601L191.558 303.65L191.509 303.701L194.399 306.466ZM162.253 368.875L159.185 371.442L165.001 378.391L166.216 369.411L162.253 368.875ZM162.223 368.84L165.291 366.273L158.271 357.883L158.223 368.823L162.223 368.84ZM148.515 412.756L145.216 410.495L145.215 410.496L148.515 412.756ZM138.802 424.368L135.993 421.521H135.993L138.802 424.368ZM113.588 441.151L115.128 444.843L115.128 444.843L113.588 441.151ZM82.7966 447.224L82.8137 443.224L82.8115 443.224L82.7966 447.224ZM52.0574 440.913L50.4884 444.592L50.4911 444.593L52.0574 440.913ZM26.9777 423.926L24.1448 426.75L24.146 426.751L26.9777 423.926ZM17.3581 412.239L14.0406 414.474L14.0408 414.474L17.3581 412.239ZM4.00062 368.201L0.000656366 368.183L0.000650644 368.185L4.00062 368.201ZM5.67688 352.37L9.59048 353.197L9.59102 353.195L5.67688 352.37ZM27.4274 312.69L30.2364 315.538L30.2371 315.537L27.4274 312.69ZM83.4274 289.84L83.4114 293.84L83.4194 293.84H83.4274V289.84ZM85.419 289.875L85.2784 293.872L85.2856 293.872L85.2928 293.873L85.419 289.875ZM135.456 271.691L138.245 274.557L138.246 274.557L135.456 271.691ZM172.258 235.858L175.048 238.724L175.099 238.674L175.148 238.622L172.258 235.858ZM204.404 173.443L207.472 170.876L201.658 163.929L200.441 172.906L204.404 173.443ZM204.434 173.478L201.366 176.045L208.386 184.435L208.434 173.496L204.434 173.478ZM218.142 129.562L214.843 127.299L214.843 127.3L218.142 129.562ZM227.855 117.951L230.662 120.8L230.664 120.798L227.855 117.951ZM229.134 116.715L231.88 119.624L231.903 119.602L231.926 119.58L229.134 116.715ZM284.781 94.212L284.765 98.212L284.773 98.212H284.781V94.212ZM286.772 94.2469L286.631 98.2444L286.639 98.2446L286.646 98.2449L286.772 94.2469ZM336.809 76.063L339.599 78.9297L339.599 78.9289L336.809 76.063ZM373.611 40.23L376.401 43.0959L376.452 43.0461L376.502 42.9946L373.611 40.23ZM405.758 -22.1843L408.824 -24.7528L403.011 -31.6931L401.794 -22.7219L405.758 -22.1843ZM405.787 -22.1494L402.721 -19.5809L409.74 -11.2011L409.787 -22.1322L405.787 -22.1494ZM419.495 -66.0661L416.196 -68.3286L416.196 -68.3282L419.495 -66.0661ZM429.208 -77.6773L432.015 -74.828L432.018 -74.8303L429.208 -77.6773ZM454.422 -94.4606L455.961 -90.7685L455.962 -90.7689L454.422 -94.4606ZM466.721 -98.4382L467.635 -94.544L467.686 -94.5558L467.736 -94.569L466.721 -98.4382ZM486.992 -100.999L487.009 -104.999L487.008 -104.999L486.992 -100.999ZM502.822 -99.3376L503.642 -103.253L503.642 -103.253L502.822 -99.3376ZM542.508 -77.7001L539.668 -74.8837L539.668 -74.8835L542.508 -77.7001ZM565.358 -21.9909L569.358 -21.9562L569.358 -21.9655V-21.9748L565.358 -21.9909ZM565.324 -20.0038L569.322 -19.8756L569.322 -19.8872L569.322 -19.8988L565.324 -20.0038ZM583.502 29.7731L580.642 32.5702L580.643 32.5714L583.502 29.7731ZM619.34 66.378L616.482 69.1763L616.532 69.2269L616.583 69.2757L619.34 66.378ZM676.644 97.5634L675.944 101.502L676.41 101.584L676.882 101.556L676.644 97.5634ZM681.689 97.4235L681.706 93.4235H681.704L681.689 97.4235ZM697.519 99.0853L698.339 95.1702L698.338 95.1701L697.519 99.0853ZM700.175 99.69L699.219 103.574L700.036 103.775L700.864 103.63L700.175 99.69ZM734.456 82.597L737.245 85.4637L737.246 85.4629L734.456 82.597ZM771.258 46.764L774.048 49.6299L774.099 49.5801L774.148 49.5286L771.258 46.764ZM803.404 -15.6503L806.472 -18.2172L800.658 -25.1653L799.441 -16.1878L803.404 -15.6503ZM803.434 -15.6154L800.366 -13.0485L807.386 -4.65831L807.434 -15.5982L803.434 -15.6154ZM817.142 -59.5321L813.843 -61.7946L813.843 -61.7942L817.142 -59.5321ZM826.855 -71.1432L829.662 -68.2939L829.664 -68.2962L826.855 -71.1432ZM852.069 -87.9265L853.608 -84.2345L853.608 -84.2348L852.069 -87.9265ZM882.86 -93.9994L882.877 -97.9994L882.875 -97.9994L882.86 -93.9994ZM913.594 -87.6825L915.163 -91.3619L915.162 -91.3622L913.594 -87.6825ZM938.679 -70.7016L941.512 -73.5255L941.511 -73.5267L938.679 -70.7016ZM948.299 -59.0149L951.616 -61.2495L951.616 -61.2499L948.299 -59.0149ZM961.651 -14.9762L965.65 -14.9589V-14.9604L961.651 -14.9762ZM959.98 0.854057L963.894 1.6781L963.894 1.67754L959.98 0.854057ZM938.23 40.54L935.421 37.6923L935.42 37.6925L938.23 40.54ZM882.23 63.3904L882.195 67.3903L882.204 67.3903L882.214 67.3904L882.23 63.3904ZM880.232 63.3555L880.105 67.3535L880.116 67.3539L880.127 67.3542L880.232 63.3555ZM830.195 81.5336L827.406 78.6669L827.404 78.6681L830.195 81.5336ZM793.399 117.372L790.609 114.507L790.558 114.556L790.509 114.607L793.399 117.372ZM761.253 179.781L758.187 182.35L764.002 189.288L765.216 180.318L761.253 179.781ZM761.223 179.746L764.289 177.177L757.271 168.803L757.223 179.729L761.223 179.746ZM760.509 190.016L756.545 189.477L756.477 189.981L756.537 190.487L760.509 190.016ZM778.198 228.196L775.339 230.993L775.34 230.994L778.198 228.196ZM814.037 264.801L811.179 267.599L811.229 267.65L811.28 267.699L814.037 264.801ZM869.836 295.708L869.084 299.637L869.637 299.743L870.198 299.692L869.836 295.708ZM877.402 295.381L877.419 291.381H877.417L877.402 295.381ZM908.135 301.698L909.704 298.018L909.704 298.018L908.135 301.698ZM933.221 318.679L936.054 315.855L936.053 315.854L933.221 318.679ZM942.841 330.365L946.158 328.131L946.158 328.13L942.841 330.365ZM956.192 374.404L960.192 374.421V374.42L956.192 374.404ZM954.522 390.234L958.436 391.058L958.436 391.058L954.522 390.234ZM935.244 427.37L932.311 424.65L932.274 424.69L932.239 424.73L935.244 427.37ZM931.497 431.353L934.314 434.193L934.315 434.192L931.497 431.353ZM919.81 440.923L922.037 444.246L922.037 444.245L919.81 440.923ZM875.772 454.211L875.754 458.211H875.756L875.772 454.211ZM863.411 453.19L864.054 449.242L863.508 449.153L862.958 449.216L863.411 453.19ZM824.737 470.914L821.947 468.047L821.946 468.048L824.737 470.914ZM787.941 506.753L785.15 503.887L785.099 503.937L785.05 503.988L787.941 506.753ZM755.794 569.161L752.727 571.729L758.543 578.674L759.758 569.698L755.794 569.161ZM755.765 569.126L758.831 566.558L751.812 558.176L751.765 569.109L755.765 569.126ZM755.328 577.098L751.35 576.677L751.325 576.912L751.328 577.149L755.328 577.098ZM773.541 623.316L770.681 626.113L770.682 626.114L773.541 623.316ZM809.379 659.92L806.521 662.719L806.571 662.769L806.622 662.818L809.379 659.92ZM871.788 691.9L874.346 694.975L881.345 689.151L872.322 687.936L871.788 691.9ZM871.753 691.929L869.194 688.855L860.75 695.882L871.736 695.929L871.753 691.929ZM915.67 705.566L913.417 708.871L913.417 708.872L915.67 705.566ZM927.281 715.229L930.12 712.412L927.281 715.229ZM944.064 740.312L947.753 738.766L947.753 738.765L944.064 740.312ZM950.137 770.944L946.137 770.927V770.929L950.137 770.944ZM943.826 801.523L947.502 803.099L947.503 803.096L943.826 801.523ZM926.839 826.473L929.656 829.313L929.657 829.312L926.839 826.473ZM915.152 836.042L917.379 839.365L917.379 839.365L915.152 836.042ZM871.114 849.33L871.097 853.33H871.098L871.114 849.33ZM855.284 847.663L856.106 843.748L856.104 843.748L855.284 847.663ZM815.603 826.025L818.444 823.209L818.443 823.208L815.603 826.025ZM792.753 770.316L796.753 770.332L796.753 770.324V770.316H792.753ZM792.788 768.335L796.785 768.476L796.786 768.469L796.786 768.462L792.788 768.335ZM774.604 718.558L777.463 715.761L777.463 715.76L774.604 718.558ZM738.771 681.947L741.63 679.149L741.58 679.098L741.528 679.049L738.771 681.947ZM676.357 649.967L673.795 646.895L666.813 652.716L675.822 653.932L676.357 649.967ZM676.392 649.938L678.953 653.011L687.38 645.985L676.409 645.938L676.392 649.938ZM669.082 649.571L669.466 645.59L669.229 645.567L668.99 645.572L669.082 649.571ZM623.868 668.02L621.044 665.188L621.043 665.189L623.868 668.02ZM587.469 704.351L584.643 701.52L584.593 701.57L584.545 701.622L587.469 704.351ZM555.949 765.612L551.992 765.028L551.948 765.328L551.949 765.632L555.949 765.612ZM555.949 766.354L551.949 766.338V766.339L555.949 766.354ZM554.082 783.136L550.177 782.268L550.167 782.312L550.159 782.356L554.082 783.136ZM542.08 812.101L538.755 809.877L538.754 809.878L542.08 812.101ZM532.472 823.871L529.627 821.059V821.059L532.472 823.871ZM507.529 840.885L509.101 844.563L509.102 844.563L507.529 840.885ZM477.07 847.041L477.087 843.041L477.085 843.041L477.07 847.041ZM446.662 840.643L445.06 844.309L445.063 844.31L446.662 840.643ZM421.853 823.423L418.985 826.213L418.986 826.214L421.853 823.423ZM412.337 811.576L408.994 813.773L408.994 813.774L412.337 811.576ZM403.134 792.486L406.935 791.24L406.918 791.189L406.9 791.139L403.134 792.486ZM398.565 765.727L402.565 765.743L402.565 765.735V765.727H398.565ZM398.6 763.745L402.598 763.887L402.598 763.88L402.598 763.872L398.6 763.745ZM380.416 713.969L383.276 711.172L383.275 711.171L380.416 713.969ZM344.583 677.358L347.442 674.56L347.392 674.509L347.34 674.46L344.583 677.358ZM282.169 645.378L279.608 642.306L272.625 648.127L281.634 649.342L282.169 645.378ZM282.204 645.349L284.765 648.421L293.193 641.396L282.221 641.349L282.204 645.349ZM238.287 631.712L236.033 635.016L236.033 635.017L238.287 631.712ZM226.676 622.05L229.518 619.235L229.516 619.233L226.676 622.05ZM209.893 596.967L213.582 595.421L213.582 595.42L209.893 596.967ZM203.82 566.335L199.82 566.318L199.82 566.32L203.82 566.335ZM210.137 535.761L206.46 534.185L206.46 534.186L210.137 535.761ZM227.118 510.806L224.301 507.965L224.3 507.967L227.118 510.806ZM238.804 501.236L236.578 497.913L236.577 497.913L238.804 501.236ZM282.843 487.954L282.86 483.954H282.859L282.843 487.954ZM298.673 489.615L299.493 485.7L299.493 485.7L298.673 489.615ZM338.359 511.253L335.519 514.069L335.519 514.07L338.359 511.253ZM361.21 566.962L365.21 566.997L365.21 566.988L365.21 566.978L361.21 566.962ZM361.175 568.949L365.173 569.078L365.173 569.066L365.173 569.055L361.175 568.949ZM379.353 618.726L376.493 621.523L376.495 621.525L379.353 618.726ZM415.192 655.331L412.333 658.129L412.383 658.18L412.434 658.229L415.192 655.331ZM477.6 687.311L480.16 690.385L487.152 684.561L478.134 683.347L477.6 687.311ZM477.565 687.34L475.005 684.266L466.569 691.293L477.548 691.34L477.565 687.34ZM483.223 687.565L482.922 691.554L483.099 691.567L483.278 691.565L483.223 687.565ZM529.161 669.098L531.985 671.931L531.986 671.93L529.161 669.098ZM565.566 632.773L568.391 635.605L568.442 635.554L568.49 635.502L565.566 632.773ZM597.366 569.502L600.463 566.971L594.614 559.813L593.401 568.977L597.366 569.502ZM597.395 569.537L594.298 572.069L601.348 580.696L601.395 569.554L597.395 569.537ZM598.886 554.319L602.812 555.082L602.815 555.071L602.817 555.059L598.886 554.319ZM599.218 552.657L603.132 553.484L603.132 553.481L599.218 552.657ZM610.671 525.445L613.999 527.664L614.004 527.656L614.01 527.649L610.671 525.445ZM610.955 525.018L607.631 522.793L607.631 522.793L610.955 525.018ZM620.564 513.247L623.406 516.062L623.408 516.06L620.564 513.247ZM645.506 496.234L647.077 499.912L647.078 499.912L645.506 496.234ZM675.966 490.077L675.983 486.077L675.981 486.077L675.966 490.077ZM679.633 490.18L679.427 494.174L679.483 494.177L679.539 494.178L679.633 490.18ZM728.997 471.977L731.787 474.844L731.788 474.843L728.997 471.977ZM765.799 436.144L768.589 439.01L768.641 438.96L768.69 438.909L765.799 436.144ZM797.428 377.193L801.375 377.841L801.435 377.477L801.427 377.109L797.428 377.193ZM797.411 375.197L801.411 375.213L801.411 375.205V375.197H797.411ZM797.446 373.215L801.443 373.357L801.443 373.35L801.444 373.342L797.446 373.215ZM779.262 323.438L782.121 320.641L782.12 320.641L779.262 323.438ZM743.429 286.828L746.287 284.03L746.238 283.979L746.186 283.93L743.429 286.828ZM693.75 257.283L694.736 253.407L693.959 253.209L693.167 253.326L693.75 257.283ZM681.797 258.13L681.814 254.13H681.811L681.797 258.13ZM651.057 251.819L649.488 255.498L649.491 255.5L651.057 251.819ZM625.978 234.832L623.145 237.656L623.146 237.657L625.978 234.832ZM616.358 223.146L613.04 225.38L613.041 225.381L616.358 223.146ZM598.791 180.696C598.905 183.354 599.146 185.98 599.507 188.569L607.43 187.464C607.104 185.127 606.887 182.754 606.783 180.352L598.791 180.696ZM598.665 175.79C598.659 177.453 598.702 179.105 598.793 180.746L606.781 180.302C606.699 178.819 606.66 177.325 606.665 175.819L598.665 175.79ZM598.793 171.5C598.714 172.92 598.672 174.35 598.665 175.787L606.665 175.822C606.671 174.521 606.71 173.228 606.781 171.944L598.793 171.5ZM581.706 127.813C593.092 139.453 598.673 155.209 598.787 171.749L606.787 171.694C606.661 153.413 600.476 135.561 587.424 122.218L581.706 127.813ZM545.873 91.2027L581.706 127.813L587.424 122.218L551.591 85.6069L545.873 91.2027ZM488.084 60.7213C508.351 63.8437 525.464 71.79 545.975 91.3029L551.489 85.5068C529.944 65.0103 511.375 56.2153 489.303 52.8146L488.084 60.7213ZM484.567 60.8564C486.014 60.8622 487.452 60.8309 488.882 60.7635L488.505 52.7724C487.212 52.8334 485.909 52.8617 484.599 52.8564L484.567 60.8564ZM482.481 60.8202C483.17 60.8382 483.853 60.8502 484.548 60.8562L484.618 52.8566C483.97 52.8509 483.333 52.8397 482.69 52.8229L482.481 60.8202ZM435.338 77.8662C447.728 65.8098 464.77 60.2553 482.458 60.8195L482.713 52.8236C463.231 52.2022 443.956 58.317 429.759 72.1329L435.338 77.8662ZM398.544 113.704L435.34 77.865L429.758 72.1341L392.962 107.973L398.544 113.704ZM367.57 173.784C370.453 152.486 378.311 134.859 398.643 113.603L392.862 108.073C371.481 130.426 362.774 149.574 359.642 172.71L367.57 173.784ZM360.508 175.778L360.538 175.813L366.674 170.681L366.645 170.646L360.508 175.778ZM367.157 181.222C367.423 178.591 367.565 175.925 367.577 173.229L359.577 173.195C359.566 175.633 359.438 178.042 359.198 180.417L367.157 181.222ZM384.211 222.605C373.288 211.438 367.709 196.482 367.175 180.685L359.18 180.955C359.771 198.446 365.973 215.401 378.493 228.199L384.211 222.605ZM420.049 259.209L384.21 222.604L378.494 228.2L414.333 264.805L420.049 259.209ZM480.133 290.023C458.831 287.153 441.203 279.335 419.948 259.109L414.433 264.905C436.787 286.176 455.934 294.836 479.065 297.951L480.133 290.023ZM482.124 297.089L482.159 297.06L477.039 290.913L477.004 290.942L482.124 297.089ZM525.734 304.348C512.568 295.372 496.684 290.089 479.582 290.016L479.547 298.016C495 298.082 509.335 302.85 521.228 310.958L525.734 304.348ZM537.932 314.498C534.209 310.746 530.125 307.339 525.733 304.347L521.229 310.958C525.194 313.66 528.885 316.738 532.253 320.132L537.932 314.498ZM555.564 340.851C551.411 330.946 545.384 322.01 537.932 314.498L532.253 320.132C538.992 326.925 544.437 335.002 548.187 343.945L555.564 340.851ZM561.948 373.047C561.997 361.651 559.719 350.766 555.565 340.852L548.186 343.944C551.935 352.89 553.993 362.713 553.948 373.013L561.948 373.047ZM555.315 405.183C559.542 395.301 561.906 384.441 561.948 373.045L553.948 373.015C553.91 383.315 551.775 393.117 547.96 402.037L555.315 405.183ZM537.468 431.398C544.98 423.943 551.08 415.062 555.314 405.186L547.961 402.034C544.14 410.948 538.629 418.975 531.833 425.72L537.468 431.398ZM525.191 441.451C529.6 438.496 533.714 435.121 537.467 431.399L531.834 425.719C528.439 429.086 524.719 432.137 520.737 434.806L525.191 441.451ZM478.909 455.417C496.019 455.484 511.952 450.323 525.19 441.452L520.737 434.806C508.778 442.82 494.398 447.478 478.941 447.417L478.909 455.417ZM462.272 453.664C467.652 454.795 473.217 455.393 478.908 455.417L478.942 447.417C473.79 447.395 468.766 446.854 463.918 445.835L462.272 453.664ZM420.574 430.928C431.749 442.199 446.149 450.286 462.275 453.664L463.915 445.834C449.369 442.787 436.362 435.488 426.255 425.295L420.574 430.928ZM396.564 372.387C396.473 395.189 405.664 415.898 420.575 430.929L426.254 425.295C412.772 411.704 404.482 393.008 404.564 372.419L396.564 372.387ZM396.602 370.28C396.577 370.984 396.564 371.694 396.564 372.403H404.564C404.564 371.787 404.575 371.172 404.597 370.563L396.602 370.28ZM379.556 323.442C391.609 335.763 397.16 352.703 396.601 370.294L404.597 370.548C405.213 351.151 399.094 331.974 385.275 317.847L379.556 323.442ZM343.724 286.832L379.557 323.442L385.274 317.847L349.441 281.236L343.724 286.832ZM286.097 256.375C306.291 259.515 323.368 267.47 343.825 286.932L349.339 281.136C327.852 260.694 309.324 251.891 287.326 248.47L286.097 256.375ZM283.214 256.484C284.438 256.489 285.657 256.467 286.869 256.42L286.555 248.426C285.458 248.469 284.354 248.489 283.246 248.484L283.214 256.484ZM281.127 256.448C281.816 256.466 282.5 256.478 283.195 256.484L283.264 248.484C282.616 248.479 281.98 248.467 281.337 248.451L281.127 256.448ZM233.985 273.494C246.374 261.438 263.417 255.883 281.105 256.447L281.36 248.451C261.878 247.83 242.603 253.945 228.406 267.761L233.985 273.494ZM197.19 309.332L233.986 273.493L228.404 267.762L191.609 303.601L197.19 309.332ZM166.216 369.411C169.1 348.114 176.957 330.487 197.29 309.231L191.509 303.701C170.128 326.054 161.421 345.202 158.289 368.338L166.216 369.411ZM159.156 371.407L159.185 371.442L165.32 366.308L165.291 366.273L159.156 371.407ZM151.815 415.018C160.837 401.851 166.15 385.965 166.223 368.857L158.223 368.823C158.157 384.27 153.365 398.603 145.216 410.495L151.815 415.018ZM141.612 427.215C145.384 423.493 148.807 419.409 151.816 415.017L145.215 410.496C142.5 414.461 139.405 418.153 135.993 421.521L141.612 427.215ZM115.128 444.843C125.081 440.691 134.062 434.666 141.612 427.215L135.993 421.521C129.163 428.26 121.042 433.707 112.048 437.459L115.128 444.843ZM82.7795 451.224C94.2292 451.273 105.166 448.996 115.128 444.843L112.049 437.459C103.053 441.209 93.1729 443.268 82.8137 443.224L82.7795 451.224ZM50.4911 444.593C60.4209 448.819 71.3321 451.181 82.7817 451.224L82.8115 443.224C72.4522 443.185 62.5941 441.049 53.6236 437.232L50.4911 444.593ZM24.146 426.751C31.6396 434.262 40.5646 440.36 50.4884 444.592L53.6264 437.233C44.6615 433.41 36.5903 427.897 29.8094 421.101L24.146 426.751ZM14.0408 414.474C17.0117 418.884 20.4042 422.998 24.1448 426.75L29.8106 421.102C26.4256 417.706 23.3583 413.986 20.6755 410.004L14.0408 414.474ZM0.000650644 368.185C-0.0668745 385.299 5.123 401.235 14.0406 414.474L20.6757 410.005C12.6204 398.046 7.93962 383.669 8.00059 368.216L0.000650644 368.185ZM1.76328 351.543C0.626271 356.925 0.0251868 362.49 0.000656605 368.183L8.00058 368.218C8.02278 363.067 8.56646 358.044 9.59048 353.197L1.76328 351.543ZM24.6184 309.842C13.2905 321.016 5.15977 335.416 1.76274 351.546L9.59102 353.195C12.6537 338.652 19.989 325.646 30.2364 315.538L24.6184 309.842ZM83.4434 285.84C60.5346 285.748 39.7248 294.934 24.6177 309.843L30.2371 315.537C43.9009 302.052 62.7023 293.757 83.4114 293.84L83.4434 285.84ZM85.5597 285.877C84.8523 285.852 84.1396 285.84 83.4274 285.84V293.84C84.0468 293.84 84.6658 293.851 85.2784 293.872L85.5597 285.877ZM132.666 268.824C120.277 280.881 103.24 286.435 85.5453 285.877L85.2928 293.873C104.78 294.488 124.048 288.373 138.245 274.557L132.666 268.824ZM169.467 232.992L132.665 268.825L138.246 274.557L175.048 238.724L169.467 232.992ZM200.441 172.906C197.551 194.21 189.699 211.831 169.367 233.093L175.148 238.622C196.53 216.264 205.23 197.122 208.368 173.981L200.441 172.906ZM207.501 170.911L207.472 170.876L201.337 176.011L201.366 176.045L207.501 170.911ZM214.843 127.3C205.814 140.467 200.507 156.354 200.434 173.461L208.434 173.496C208.5 158.047 213.287 143.715 221.441 131.824L214.843 127.3ZM225.047 115.101C221.265 118.828 217.848 122.918 214.843 127.299L221.44 131.824C224.159 127.86 227.248 124.163 230.662 120.8L225.047 115.101ZM226.389 113.806C225.936 114.234 225.488 114.666 225.045 115.104L230.664 120.798C231.065 120.402 231.47 120.011 231.88 119.624L226.389 113.806ZM284.797 90.212C262.075 90.1212 241.418 99.1564 226.342 113.851L231.926 119.58C245.562 106.289 264.225 98.1299 284.765 98.212L284.797 90.212ZM286.913 90.2493C286.206 90.2244 285.493 90.212 284.781 90.212V98.212C285.4 98.212 286.019 98.2228 286.631 98.2444L286.913 90.2493ZM334.019 73.1964C321.63 85.2529 304.593 90.8075 286.898 90.2489L286.646 98.2449C306.133 98.8601 325.401 92.7455 339.599 78.9297L334.019 73.1964ZM370.82 37.3641L334.019 73.1971L339.599 78.9289L376.401 43.0959L370.82 37.3641ZM401.794 -22.7219C398.905 -1.41735 391.053 16.2037 370.72 37.4655L376.502 42.9946C397.883 20.636 406.583 1.49424 409.721 -21.6468L401.794 -22.7219ZM408.853 -24.718L408.824 -24.7528L402.691 -19.6158L402.721 -19.5809L408.853 -24.718ZM416.196 -68.3282C407.167 -55.1607 401.861 -39.2734 401.787 -22.1667L409.787 -22.1322C409.853 -37.5809 414.64 -51.9128 422.794 -63.804L416.196 -68.3282ZM426.401 -80.5265C422.619 -76.8002 419.201 -72.7097 416.196 -68.3286L422.794 -63.8036C425.513 -67.7677 428.602 -71.4644 432.015 -74.828L426.401 -80.5265ZM452.883 -98.1526C442.923 -94.0004 433.948 -87.9753 426.398 -80.5243L432.018 -74.8303C438.848 -81.5707 446.963 -87.0172 455.961 -90.7685L452.883 -98.1526ZM465.808 -102.332C461.351 -101.287 457.031 -99.8828 452.882 -98.1522L455.962 -90.7689C459.708 -92.3315 463.609 -93.5993 467.635 -94.544L465.808 -102.332ZM487.008 -104.999C479.655 -105.028 472.513 -104.092 465.707 -102.307L467.736 -94.569C473.877 -96.1787 480.326 -97.0255 486.976 -96.9994L487.008 -104.999ZM503.642 -103.253C498.269 -104.377 492.7 -104.975 487.009 -104.999L486.975 -96.9994C492.128 -96.9773 497.159 -96.4362 502.003 -95.4225L503.642 -103.253ZM545.349 -80.5164C534.173 -91.787 519.774 -99.8742 503.642 -103.253L502.002 -95.4226C516.554 -92.3749 529.561 -85.0764 539.668 -74.8837L545.349 -80.5164ZM569.358 -21.9748C569.45 -44.7778 560.253 -65.4866 545.348 -80.5166L539.668 -74.8835C553.146 -61.292 561.441 -42.5953 561.358 -22.007L569.358 -21.9748ZM569.322 -19.8988C569.34 -20.5839 569.352 -21.2639 569.358 -21.9562L561.359 -22.0256C561.353 -21.3815 561.342 -20.7484 561.325 -20.1088L569.322 -19.8988ZM586.361 26.976C574.308 14.6546 568.758 -2.29073 569.322 -19.8756L561.326 -20.132C560.704 -0.740074 566.823 18.443 580.642 32.5702L586.361 26.976ZM622.199 63.5796L586.36 26.9747L580.643 32.5714L616.482 69.1763L622.199 63.5796ZM677.344 93.625C658.243 90.2309 641.73 82.1619 622.098 63.4803L616.583 69.2757C637.177 88.872 655.074 97.793 675.944 101.502L677.344 93.625ZM681.704 93.4235C679.926 93.4165 678.159 93.4661 676.406 93.5704L676.882 101.556C678.466 101.462 680.063 101.417 681.673 101.423L681.704 93.4235ZM698.338 95.1701C692.966 94.0456 687.397 93.4479 681.706 93.4235L681.671 101.423C686.824 101.446 691.856 101.987 696.699 103L698.338 95.1701ZM701.131 95.806C700.206 95.5784 699.275 95.3663 698.339 95.1702L696.699 103C697.544 103.177 698.384 103.369 699.219 103.574L701.131 95.806ZM731.666 79.7304C722.817 88.3414 711.614 93.6276 699.485 95.7499L700.864 103.63C714.396 101.262 727.119 95.3179 737.245 85.4637L731.666 79.7304ZM768.467 43.8981L731.665 79.7312L737.246 85.4629L774.048 49.6299L768.467 43.8981ZM799.441 -16.1878C796.551 5.11667 788.699 22.7377 768.367 43.9995L774.148 49.5286C795.53 27.17 804.23 8.02826 807.368 -15.1127L799.441 -16.1878ZM806.501 -18.1824L806.472 -18.2172L800.337 -13.0834L800.366 -13.0485L806.501 -18.1824ZM813.843 -61.7942C804.813 -48.6267 799.507 -32.7394 799.434 -15.6326L807.434 -15.5982C807.5 -31.0469 812.286 -45.3788 820.44 -57.27L813.843 -61.7942ZM824.047 -73.9925C820.265 -70.2662 816.848 -66.1757 813.843 -61.7946L820.44 -57.2696C823.159 -61.2336 826.248 -64.9304 829.662 -68.2939L824.047 -73.9925ZM850.529 -91.6186C840.569 -87.4664 831.595 -81.4412 824.045 -73.9902L829.664 -68.2962C836.494 -75.0366 844.609 -80.4832 853.608 -84.2345L850.529 -91.6186ZM882.875 -97.9994C871.429 -98.0421 860.487 -95.7722 850.529 -91.6182L853.608 -84.2348C862.597 -87.9843 872.483 -90.0381 882.845 -89.9995L882.875 -97.9994ZM915.162 -91.3622C905.23 -95.595 894.318 -97.9506 882.877 -97.9994L882.843 -89.9995C893.2 -89.9553 903.057 -87.8245 912.026 -84.0027L915.162 -91.3622ZM941.511 -73.5267C934.016 -81.0393 925.084 -87.131 915.163 -91.3619L912.025 -84.003C920.992 -80.1793 929.068 -74.6715 935.848 -67.8764L941.511 -73.5267ZM951.616 -61.2499C948.645 -65.6594 945.253 -69.7732 941.512 -73.5255L935.846 -67.8776C939.231 -64.482 942.299 -60.762 944.982 -56.7799L951.616 -61.2499ZM965.65 -14.9604C965.718 -32.0679 960.535 -48.0094 951.616 -61.2495L944.981 -56.7802C953.036 -44.8222 957.711 -30.4399 957.651 -14.9919L965.65 -14.9604ZM963.894 1.67754C965.025 -3.69627 965.626 -9.2664 965.65 -14.9589L957.651 -14.9934C957.628 -9.84187 957.085 -4.81203 956.066 0.0305786L963.894 1.67754ZM941.039 43.3878C952.367 32.2141 960.497 17.8139 963.894 1.6781L956.066 0.030014C953.003 14.5783 945.668 27.5846 935.421 37.6923L941.039 43.3878ZM882.214 67.3904C905.123 67.4819 925.932 58.2902 941.039 43.3876L935.42 37.6925C921.756 51.1727 902.954 59.4732 882.246 59.3904L882.214 67.3904ZM880.127 67.3542C880.816 67.3722 881.5 67.3842 882.195 67.3903L882.264 59.3906C881.616 59.3849 880.98 59.3737 880.337 59.3569L880.127 67.3542ZM832.985 84.4002C845.374 72.3438 862.417 66.7894 880.105 67.3535L880.36 59.3576C860.878 58.7362 841.603 64.8511 827.406 78.6669L832.985 84.4002ZM796.19 120.238L832.986 84.399L827.404 78.6681L790.609 114.507L796.19 120.238ZM765.216 180.318C768.1 159.02 775.957 141.393 796.29 120.137L790.509 114.607C769.128 136.96 760.421 156.108 757.289 179.244L765.216 180.318ZM758.158 182.315L758.187 182.35L764.318 177.211L764.289 177.177L758.158 182.315ZM764.472 190.554C764.952 187.021 765.208 183.419 765.223 179.763L757.223 179.729C757.209 183.035 756.978 186.289 756.545 189.477L764.472 190.554ZM781.058 225.399C771.541 215.67 766.085 203.074 764.481 189.545L756.537 190.487C758.322 205.546 764.438 219.85 775.339 230.993L781.058 225.399ZM816.895 262.003L781.057 225.398L775.34 230.994L811.179 267.599L816.895 262.003ZM870.589 291.78C852.111 288.239 835.94 280.121 816.795 261.903L811.28 267.699C831.348 286.795 848.863 295.762 869.084 299.637L870.589 291.78ZM877.417 291.381C874.74 291.371 872.091 291.487 869.475 291.725L870.198 299.692C872.564 299.477 874.962 299.372 877.387 299.381L877.417 291.381ZM909.704 298.018C899.771 293.785 888.86 291.43 877.419 291.381L877.385 299.381C887.741 299.425 897.599 301.556 906.567 305.378L909.704 298.018ZM936.053 315.854C928.558 308.341 919.626 302.249 909.704 298.018L906.566 305.377C915.533 309.201 923.61 314.709 930.389 321.504L936.053 315.854ZM946.158 328.13C943.187 323.721 939.794 319.607 936.054 315.855L930.388 321.503C933.773 324.898 936.84 328.618 939.523 332.6L946.158 328.13ZM960.192 374.42C960.26 357.312 955.076 341.371 946.158 328.131L939.523 332.6C947.578 344.558 952.253 358.94 952.192 374.388L960.192 374.42ZM958.436 391.058C959.567 385.684 960.168 380.114 960.192 374.421L952.192 374.387C952.17 379.538 951.626 384.568 950.608 389.411L958.436 391.058ZM938.178 430.089C948.15 419.333 955.305 405.933 958.436 391.058L950.608 389.41C947.784 402.822 941.33 414.922 932.311 424.65L938.178 430.089ZM934.315 434.192C935.674 432.843 936.987 431.448 938.25 430.009L932.239 424.73C931.096 426.032 929.908 427.294 928.679 428.514L934.315 434.192ZM922.037 444.245C926.447 441.29 930.561 437.915 934.314 434.193L928.68 428.513C925.285 431.88 921.565 434.931 917.583 437.6L922.037 444.245ZM875.756 458.211C892.866 458.278 908.798 453.117 922.037 444.246L917.584 437.6C905.624 445.614 891.245 450.272 875.787 450.211L875.756 458.211ZM862.768 457.138C867.003 457.828 871.34 458.192 875.754 458.211L875.789 450.211C871.792 450.194 867.873 449.865 864.054 449.242L862.768 457.138ZM827.527 473.781C837.375 464.196 850.15 458.727 863.864 457.164L862.958 449.216C847.715 450.953 833.223 457.074 821.947 468.047L827.527 473.781ZM790.732 509.618L827.528 473.779L821.946 468.048L785.15 503.887L790.732 509.618ZM759.758 569.698C762.641 548.4 770.499 530.774 790.831 509.518L785.05 503.988C763.669 526.34 754.963 545.488 751.83 568.625L759.758 569.698ZM752.698 571.694L752.727 571.729L758.861 566.593L758.831 566.558L752.698 571.694ZM759.306 577.519C759.597 574.764 759.753 571.97 759.765 569.143L751.765 569.109C751.754 571.665 751.613 574.19 751.35 576.677L759.306 577.519ZM776.4 620.518C765.12 608.987 759.538 593.413 759.328 577.046L751.328 577.149C751.561 595.246 757.752 612.895 770.681 626.113L776.4 620.518ZM812.238 657.122L776.399 620.517L770.682 626.114L806.521 662.719L812.238 657.122ZM872.322 687.936C851.019 685.067 833.392 677.248 812.137 657.023L806.622 662.818C828.976 684.09 848.123 692.749 871.254 695.865L872.322 687.936ZM874.312 695.004L874.346 694.975L869.229 688.826L869.194 688.855L874.312 695.004ZM917.923 702.261C904.757 693.286 888.873 688.003 871.77 687.929L871.736 695.929C887.188 695.996 901.524 700.764 913.417 708.871L917.923 702.261ZM930.12 712.412C926.398 708.659 922.314 705.253 917.922 702.261L913.417 708.872C917.382 711.573 921.074 714.652 924.441 718.046L930.12 712.412ZM947.753 738.765C943.6 728.86 937.573 719.924 930.12 712.412L924.441 718.046C931.18 724.839 936.625 732.915 940.375 741.859L947.753 738.765ZM954.137 770.961C954.186 759.565 951.908 748.68 947.753 738.766L940.375 741.858C944.124 750.804 946.181 760.627 946.137 770.927L954.137 770.961ZM947.503 803.096C951.731 793.214 954.094 782.355 954.137 770.959L946.137 770.929C946.098 781.228 943.964 791.03 940.148 799.95L947.503 803.096ZM929.657 829.312C937.169 821.856 943.269 812.975 947.502 803.099L940.149 799.947C936.328 808.862 930.817 816.889 924.021 823.634L929.657 829.312ZM917.379 839.365C921.789 836.41 925.903 833.035 929.656 829.313L924.023 823.633C920.627 826.999 916.908 830.051 912.925 832.72L917.379 839.365ZM871.098 853.33C888.208 853.398 904.14 848.236 917.379 839.365L912.926 832.719C900.966 840.733 886.587 845.391 871.129 845.331L871.098 853.33ZM854.461 851.577C859.841 852.708 865.405 853.306 871.097 853.33L871.131 845.331C865.978 845.308 860.954 844.767 856.106 843.748L854.461 851.577ZM812.763 828.842C823.938 840.112 838.337 848.199 854.463 851.578L856.104 843.748C841.557 840.7 828.55 833.402 818.444 823.209L812.763 828.842ZM788.753 770.3C788.661 793.102 797.852 813.812 812.764 828.843L818.443 823.208C804.96 809.617 796.67 790.921 796.753 770.332L788.753 770.3ZM788.79 768.193C788.765 768.898 788.753 769.607 788.753 770.316H796.753C796.753 769.7 796.764 769.085 796.785 768.476L788.79 768.193ZM771.745 721.355C783.798 733.677 789.348 750.617 788.79 768.208L796.786 768.462C797.401 749.065 791.283 729.888 777.463 715.761L771.745 721.355ZM735.912 684.745L771.745 721.356L777.463 715.76L741.63 679.149L735.912 684.745ZM675.822 653.932C697.131 656.806 714.753 664.62 736.014 684.845L741.528 679.049C719.168 657.778 700.028 649.125 676.891 646.003L675.822 653.932ZM673.83 646.866L673.795 646.895L678.918 653.04L678.953 653.011L673.83 646.866ZM668.697 653.552C671.225 653.797 673.786 653.927 676.374 653.938L676.409 645.938C674.067 645.928 671.751 645.81 669.466 645.59L668.697 653.552ZM626.693 670.852C637.993 659.584 653.183 653.935 669.173 653.57L668.99 645.572C651.243 645.977 633.996 652.271 621.044 665.188L626.693 670.852ZM590.295 707.182L626.694 670.851L621.043 665.189L584.643 701.52L590.295 707.182ZM559.906 766.197C562.97 745.453 570.868 727.998 590.393 707.08L584.545 701.622C564.036 723.593 555.318 742.507 551.992 765.028L559.906 766.197ZM559.949 766.371C559.95 766.112 559.95 765.852 559.949 765.593L551.949 765.632C551.95 765.867 551.95 766.102 551.949 766.338L559.949 766.371ZM557.986 784.004C559.25 778.319 559.927 772.419 559.949 766.369L551.949 766.339C551.929 771.81 551.317 777.139 550.177 782.268L557.986 784.004ZM545.405 814.324C551.444 805.292 555.8 795 558.005 783.917L550.159 782.356C548.163 792.388 544.221 801.703 538.755 809.877L545.405 814.324ZM535.316 826.684C539.047 822.911 542.432 818.772 545.405 814.323L538.754 809.878C536.066 813.901 533.003 817.645 529.627 821.059L535.316 826.684ZM509.102 844.563C518.959 840.349 527.847 834.237 535.316 826.684L529.627 821.059C522.871 827.892 514.842 833.409 505.957 837.207L509.102 844.563ZM477.052 851.041C488.399 851.091 499.234 848.778 509.101 844.563L505.958 837.206C497.07 841.003 487.314 843.086 477.087 843.041L477.052 851.041ZM445.063 844.31C454.897 848.599 465.708 850.998 477.054 851.041L477.085 843.041C466.857 843.002 457.123 840.841 448.261 836.977L445.063 844.31ZM418.986 826.214C426.399 833.827 435.232 840.014 445.06 844.309L448.263 836.978C439.407 833.108 431.427 827.524 424.719 820.633L418.986 826.214ZM408.994 813.774C411.931 818.24 415.285 822.409 418.985 826.213L424.72 820.634C421.371 817.192 418.335 813.419 415.679 809.379L408.994 813.774ZM399.333 793.732C401.679 800.889 404.948 807.618 408.994 813.773L415.679 809.379C412.017 803.807 409.058 797.716 406.935 791.24L399.333 793.732ZM394.565 765.711C394.526 775.567 396.221 785.04 399.368 793.834L406.9 791.139C404.062 783.206 402.529 774.655 402.565 765.743L394.565 765.711ZM394.603 763.604C394.578 764.308 394.565 765.018 394.565 765.727H402.565C402.565 765.111 402.576 764.496 402.598 763.887L394.603 763.604ZM377.557 716.766C389.61 729.087 395.16 746.027 394.602 763.619L402.598 763.872C403.214 744.476 397.095 725.299 383.276 711.172L377.557 716.766ZM341.725 680.156L377.558 716.767L383.275 711.171L347.442 674.56L341.725 680.156ZM281.634 649.342C302.944 652.217 320.566 660.03 341.826 680.256L347.34 674.46C324.98 653.188 305.84 644.535 282.704 641.414L281.634 649.342ZM279.643 642.277L279.608 642.306L284.73 648.451L284.765 648.421L279.643 642.277ZM236.033 635.017C249.2 643.999 265.085 649.276 282.187 649.349L282.221 641.349C266.768 641.283 252.433 636.52 240.541 628.408L236.033 635.017ZM223.834 624.865C227.561 628.627 231.652 632.027 236.033 635.016L240.542 628.408C236.578 625.703 232.881 622.63 229.518 619.235L223.834 624.865ZM206.204 598.513C210.357 608.425 216.384 617.355 223.836 624.867L229.516 619.233C222.776 612.439 217.332 604.369 213.582 595.421L206.204 598.513ZM199.82 566.32C199.777 577.712 202.048 588.603 206.204 598.513L213.582 595.42C209.834 586.482 207.781 576.653 207.82 566.35L199.82 566.32ZM206.46 534.186C202.226 544.07 199.869 554.93 199.82 566.318L207.82 566.352C207.864 556.055 209.993 546.254 213.814 537.336L206.46 534.186ZM224.3 507.967C216.786 515.424 210.693 524.311 206.46 534.185L213.813 537.337C217.635 528.42 223.141 520.388 229.935 513.645L224.3 507.967ZM236.577 497.913C232.168 500.869 228.054 504.244 224.301 507.965L229.934 513.646C233.329 510.279 237.049 507.228 241.031 504.559L236.577 497.913ZM282.859 483.954C265.756 483.887 249.817 489.042 236.578 497.913L241.031 504.559C252.99 496.546 267.375 491.893 282.827 491.954L282.859 483.954ZM299.493 485.7C294.12 484.576 288.551 483.978 282.86 483.954L282.826 491.954C287.979 491.976 293.01 492.517 297.854 493.531L299.493 485.7ZM341.2 508.437C330.025 497.166 315.625 489.079 299.493 485.7L297.853 493.531C312.406 496.578 325.413 503.877 335.519 514.069L341.2 508.437ZM365.21 566.978C365.301 544.175 356.104 523.467 341.2 508.437L335.519 514.07C348.997 527.661 357.292 546.358 357.21 566.946L365.21 566.978ZM365.173 569.055C365.191 568.369 365.203 567.689 365.21 566.997L357.21 566.927C357.204 567.572 357.193 568.205 357.176 568.844L365.173 569.055ZM382.212 615.929C370.159 603.608 364.609 586.662 365.173 569.078L357.177 568.821C356.555 588.213 362.674 607.396 376.493 621.523L382.212 615.929ZM418.05 652.533L382.211 615.928L376.495 621.525L412.333 658.129L418.05 652.533ZM478.134 683.347C456.832 680.478 439.204 672.659 417.949 652.433L412.434 658.229C434.788 679.5 453.935 688.16 477.066 691.275L478.134 683.347ZM480.125 690.414L480.16 690.385L475.04 684.237L475.005 684.266L480.125 690.414ZM483.525 683.577C481.562 683.428 479.58 683.349 477.582 683.34L477.548 691.34C479.356 691.348 481.148 691.42 482.922 691.554L483.525 683.577ZM526.336 666.266C514.875 677.696 499.414 683.344 483.169 683.566L483.278 691.565C501.296 691.32 518.847 685.033 531.985 671.931L526.336 666.266ZM562.741 629.942L526.336 666.267L531.986 671.93L568.391 635.605L562.741 629.942ZM593.401 568.977C590.538 590.609 582.756 608.489 562.642 630.044L568.49 635.502C589.64 612.838 598.232 593.45 601.332 570.027L593.401 568.977ZM600.492 567.006L600.463 566.971L594.269 572.033L594.298 572.069L600.492 567.006ZM594.959 553.556C593.955 558.726 593.418 564.063 593.395 569.521L601.395 569.554C601.416 564.6 601.903 559.763 602.812 555.082L594.959 553.556ZM595.305 551.83C595.182 552.411 595.065 552.994 594.955 553.579L602.817 555.059C602.916 554.532 603.021 554.007 603.132 553.484L595.305 551.83ZM607.343 523.226C601.641 531.778 597.491 541.448 595.304 551.832L603.132 553.481C605.104 544.117 608.848 535.391 613.999 527.664L607.343 523.226ZM607.631 522.793C607.531 522.943 607.432 523.092 607.333 523.242L614.01 527.649C614.099 527.513 614.189 527.377 614.28 527.242L607.631 522.793ZM617.721 510.432C613.981 514.21 610.602 518.355 607.631 522.793L614.279 527.243C616.971 523.221 620.028 519.472 623.406 516.062L617.721 510.432ZM643.934 492.555C634.07 496.769 625.187 502.882 617.719 510.435L623.408 516.06C630.165 509.226 638.187 503.71 647.077 499.912L643.934 492.555ZM675.981 486.077C664.638 486.034 653.797 488.339 643.933 492.555L647.078 499.912C655.957 496.116 665.719 494.038 675.95 494.077L675.981 486.077ZM679.838 486.185C678.56 486.119 677.275 486.083 675.983 486.077L675.948 494.077C677.114 494.082 678.274 494.115 679.427 494.174L679.838 486.185ZM726.207 469.111C713.967 481.022 697.191 486.587 679.725 486.181L679.539 494.178C698.785 494.626 717.761 488.493 731.787 474.844L726.207 469.111ZM763.009 433.278L726.207 469.111L731.788 474.843L768.589 439.01L763.009 433.278ZM793.481 376.545C790.231 396.34 782.193 413.214 762.908 433.38L768.69 438.909C788.933 417.74 797.83 399.437 801.375 377.841L793.481 376.545ZM793.411 375.18C793.408 375.881 793.414 376.58 793.429 377.277L801.427 377.109C801.414 376.479 801.408 375.847 801.411 375.213L793.411 375.18ZM793.448 373.074C793.423 373.778 793.411 374.488 793.411 375.197H801.411C801.411 374.581 801.422 373.966 801.443 373.357L793.448 373.074ZM776.402 326.236C788.455 338.557 794.006 355.497 793.448 373.088L801.444 373.342C802.059 353.945 795.941 334.768 782.121 320.641L776.402 326.236ZM740.57 289.626L776.403 326.236L782.12 320.641L746.287 284.03L740.57 289.626ZM692.763 261.16C708.826 265.247 723.544 273.432 740.672 289.726L746.186 283.93C728.282 266.897 712.391 257.899 694.736 253.407L692.763 261.16ZM681.78 262.13C686.042 262.148 690.234 261.844 694.332 261.24L693.167 253.326C689.464 253.871 685.672 254.147 681.814 254.13L681.78 262.13ZM649.491 255.5C659.421 259.725 670.332 262.087 681.782 262.13L681.811 254.13C671.452 254.091 661.594 251.956 652.624 248.138L649.491 255.5ZM623.146 237.657C630.64 245.168 639.565 251.267 649.488 255.498L652.626 248.139C643.661 244.317 635.59 238.804 628.809 232.007L623.146 237.657ZM613.041 225.381C616.012 229.79 619.404 233.904 623.145 237.656L628.811 232.008C625.426 228.613 622.358 224.893 619.675 220.91L613.041 225.381ZM599.493 188.453C600.98 202.01 605.773 214.591 613.04 225.38L619.676 220.911C613.109 211.162 608.787 199.808 607.445 187.581L599.493 188.453Z" fill="url(#paint0_linear)" mask="url(#path-1-outside-1)"/>
<defs>
<linearGradient id="paint0_linear" x1="4.00001" y1="374.166" x2="1073.5" y2="374.166" gradientUnits="userSpaceOnUse">
<stop stop-color="#0076BB"/>
<stop offset="0.30034" stop-color="#5849A6"/>
<stop offset="0.58681" stop-color="#C7366E"/>
<stop offset="0.815986" stop-color="#F2633B"/>
<stop offset="1" stop-color="#F3B120"/>
</linearGradient>
</defs>
</svg>
